<?xml version="1.0" standalone="no"?><svg xmlns="http://www.w3.org/2000/svg" viewBox="0 0 1440 320"><path fill="#0099ff" fill-opacity="1" d="M0,288L20,240C40,192,80,96,120,101.3C160,107,200,213,240,229.3C280,245,320,171,360,154.7C400,139,440,181,480,202.7C520,224,560,224,600,202.7C640,181,680,139,720,144C760,149,800,203,840,213.3C880,224,920,192,960,149.3C1000,107,1040,53,1080,42.7C1120,32,1160,64,1200,112C1240,160,1280,224,1320,218.7C1360,213,1400,139,1420,101.3L1440,64L1440,0L1420,0C1400,0,1360,0,1320,0C1280,0,1240,0,1200,0C1160,0,1120,0,1080,0C1040,0,1000,0,960,0C920,0,880,0,840,0C800,0,760,0,720,0C680,0,640,0,600,0C560,0,520,0,480,0C440,0,400,0,360,0C320,0,280,0,240,0C200,0,160,0,120,0C80,0,40,0,20,0L0,0Z"></path></svg>